<?xml version="1.0" encoding="utf-8"?>
<!-- Generator: Adobe Illustrator 15.1.0, SVG Export Plug-In . SVG Version: 6.00 Build 0)  -->
<!DOCTYPE svg PUBLIC "-//W3C//DTD SVG 1.1//EN" "http://www.w3.org/Graphics/SVG/1.1/DTD/svg11.dtd">
<svg version="1.1" xmlns="http://www.w3.org/2000/svg" xmlns:xlink="http://www.w3.org/1999/xlink" x="0px" y="0px"
	 width="183.04px" height="182px" viewBox="-43.46 -46.475 183.04 182" enable-background="new -43.46 -46.475 183.04 182"
	 xml:space="preserve">
<g id="Capa_1">
	<circle fill="#1C78D3" stroke="#064182" stroke-width="8" stroke-miterlimit="10" cx="48.08" cy="44.025" r="85.5"/>
	<g>
		<path fill="#FFFFFF" d="M84.708,58.118v24.474H9.845V58.118H-4.543v31.668c0,3.97,3.216,7.19,7.205,7.19H91.89
			c3.984,0,7.207-3.218,7.207-7.19V58.118H84.708z"/>
		<path fill="#FFFFFF" d="M45.958,55.691L25.359,30.799c0,0-3.135-2.959,0.264-2.959s11.608,0,11.608,0s0-1.99,0-5.06
			c0-8.752,0-24.681,0-31.174c0,0-0.461-1.766,2.198-1.766c2.681,0,14.42,0,16.339,0c1.917,0,1.873,1.487,1.873,1.487
			c0,6.297,0,22.776,0,31.242c0,2.745,0,4.525,0,4.525s6.583,0,10.715,0c4.123,0,1.019,3.099,1.019,3.099
			S51.849,53.457,49.404,55.898C47.646,57.667,45.958,55.691,45.958,55.691z"/>
	</g>
</g>
<g id="Layer_2">
</g>
</svg>
